<?xml version="1.0"?>
<svg xmlns="http://www.w3.org/2000/svg" id="Layer_1" data-name="Layer 1" viewBox="0 0 512 512" width="512" height="512"><title>Mechanical Services</title><path d="M89.607,217h-.1a12.751,12.751,0,0,0-8.954,21.876,12.918,12.918,0,0,0,21.943-9.33,12.522,12.522,0,0,0-3.844-8.963A12.689,12.689,0,0,0,89.607,217Z"/><path d="M71.969,127.827c-8.6.047-19.894.113-26.968.165-9.535.07-17.326,4.375-19.387,10.713a55.955,55.955,0,0,0-1.6,6.144l38.7-.336Z"/><path d="M71.006,310.512l.206,27.963a2.587,2.587,0,0,0,.775,1.83,2.692,2.692,0,0,0,1.841.748l29.143-.215a2.6,2.6,0,0,0,2.578-2.616l-.206-27.963Z"/><path d="M444.483,125h-.236c-7.058,0-18.363.126-26.945.16l9.233,16.737,38.952-.294a56.349,56.349,0,0,0-1.7-6.155C461.653,129.194,453.911,125,444.483,125Z"/><path d="M333.127,122a32.455,32.455,0,0,0-32.093,27.057l64.587-.524a32.081,32.081,0,0,0-9.236-17.268A32.414,32.414,0,0,0,333.376,122Z"/><path d="M379.765,148.381l34.212-.252L381.64,89.466C367.988,65.41,355.714,55,340.689,55h-.242L149.373,56.5c-21.5.158-34.965,21.781-41.08,34.631-.062.131-.128.283-.2.41l-32.76,59.076L286.89,149.06a46.784,46.784,0,0,1,92.875-.679Z"/><path d="M228.508,237a6.983,6.983,0,0,1-7-6.928l-.135-18.177a6.85,6.85,0,0,1,6.949-6.9h.052a6.876,6.876,0,0,1,7,6.8l.117,15.845A150.943,150.943,0,0,1,266.085,198.6a150.012,150.012,0,0,1,185.091,8.824l1.917-15.374a33.324,33.324,0,0,0-8.037-21.183A25.323,25.323,0,0,0,425.966,162h-.24c-.052,0-.1.163-.155.162L63.45,165H63.4a7.213,7.213,0,0,1-1.141-.249c-12.58.84-25.06,12.074-25.116,30.444L49,283.635a6.711,6.711,0,0,1,.062.861,12.084,12.084,0,0,0,3.652,8.571,12.313,12.313,0,0,0,8.632,3.52l143.783-1.062A149.345,149.345,0,0,1,228.558,237ZM108.761,248.742C103.719,253.858,96.986,256,89.8,257h-.2a27,27,0,0,1-.192-54h.2a26.873,26.873,0,0,1,19.151,45.742ZM160.651,238H160.6a7.2,7.2,0,0,1-7-7.178l-.136-18.551A7.174,7.174,0,0,1,160.413,205h.052a7.089,7.089,0,0,1,7,7.052l.136,18.614A7.231,7.231,0,0,1,160.651,238Zm33.954-1h-.052a6.879,6.879,0,0,1-7-6.8l-.135-18.239A6.9,6.9,0,0,1,194.368,205h.052a6.982,6.982,0,0,1,7,6.927l.135,18.177A6.85,6.85,0,0,1,194.605,237Z"/><path d="M353,184.827A135.944,135.944,0,0,0,238.536,394.2l79.774-79.774A70.382,70.382,0,0,1,334.4,240.392a69.674,69.674,0,0,1,71.862-16.866,7.008,7.008,0,0,1,2.7,11.612l-22.226,22.074,4.544,25.707,24.551,4.924,22.909-22.908a7,7,0,0,1,11.589,2.732,70.051,70.051,0,0,1-90.93,87.851l-79.774,79.773A135.193,135.193,0,0,0,353,456.825c74.99,0,136-61.009,136-136a136,136,0,0,0-136-136Z"/><path d="M360.664,340.9a56.278,56.278,0,0,0,62.872-11.372,55.709,55.709,0,0,0,16.107-45.687l-16.556,16.556a7,7,0,0,1-6.326,1.914l-32.912-6.6a7,7,0,0,1-5.517-5.644l-6.012-34.018a7,7,0,0,1,1.96-6.186l15.778-15.67a55.708,55.708,0,0,0-45.755,16.1,56.279,56.279,0,0,0-11.372,62.872,7,7,0,0,1-1.419,7.856l-84.688,84.687a137.2,137.2,0,0,0,21.3,21.3l84.688-84.688A7,7,0,0,1,360.664,340.9Z"/></svg>
